<mxfile host="app.diagrams.net" agent="Mozilla/5.0 (Windows NT 10.0; Win64; x64) AppleWebKit/537.36 (KHTML, like Gecko) Chrome/130.0.0.0 Safari/537.36" version="24.8.0">
  <diagram name="Page-1" id="VuiifIVhv7wdj_cD1-_Y">
    <mxGraphModel dx="2591" dy="1947" grid="1" gridSize="10" guides="1" tooltips="1" connect="1" arrows="1" fold="1" page="1" pageScale="1" pageWidth="827" pageHeight="1169" math="0" shadow="0">
      <root>
        <mxCell id="0" />
        <mxCell id="1" parent="0" />
        <mxCell id="KwHJrZ09RcdxmC407kit-30" value="&lt;span style=&quot;font-size: 12px;&quot;&gt;Projets&lt;/span&gt;" style="swimlane;childLayout=stackLayout;horizontal=1;startSize=50;horizontalStack=0;rounded=1;fontSize=14;fontStyle=0;strokeWidth=2;resizeParent=0;resizeLast=1;shadow=0;dashed=0;align=center;arcSize=4;whiteSpace=wrap;html=1;" parent="1" vertex="1">
          <mxGeometry x="80" y="90" width="160" height="120" as="geometry" />
        </mxCell>
        <mxCell id="KwHJrZ09RcdxmC407kit-31" value="+Attribute1&#xa;+Attribute2&#xa;+Attribute3" style="align=left;strokeColor=none;fillColor=none;spacingLeft=4;fontSize=12;verticalAlign=top;resizable=0;rotatable=0;part=1;html=1;" parent="KwHJrZ09RcdxmC407kit-30" vertex="1">
          <mxGeometry y="50" width="160" height="70" as="geometry" />
        </mxCell>
        <mxCell id="KwHJrZ09RcdxmC407kit-32" value="&lt;span style=&quot;font-size: 12px;&quot;&gt;Clients&lt;/span&gt;" style="swimlane;childLayout=stackLayout;horizontal=1;startSize=50;horizontalStack=0;rounded=1;fontSize=14;fontStyle=0;strokeWidth=2;resizeParent=0;resizeLast=1;shadow=0;dashed=0;align=center;arcSize=4;whiteSpace=wrap;html=1;" parent="1" vertex="1">
          <mxGeometry x="-470" y="95" width="160" height="120" as="geometry" />
        </mxCell>
        <mxCell id="KwHJrZ09RcdxmC407kit-33" value="+Attribute1&#xa;+Attribute2&#xa;+Attribute3" style="align=left;strokeColor=none;fillColor=none;spacingLeft=4;fontSize=12;verticalAlign=top;resizable=0;rotatable=0;part=1;html=1;" parent="KwHJrZ09RcdxmC407kit-32" vertex="1">
          <mxGeometry y="50" width="160" height="70" as="geometry" />
        </mxCell>
        <mxCell id="KwHJrZ09RcdxmC407kit-35" value="Donner" style="ellipse;whiteSpace=wrap;html=1;align=center;fontStyle=4;" parent="1" vertex="1">
          <mxGeometry x="-170" y="110" width="100" height="40" as="geometry" />
        </mxCell>
        <mxCell id="KwHJrZ09RcdxmC407kit-39" value="&lt;span style=&quot;font-size: 12px;&quot;&gt;Taches&lt;/span&gt;" style="swimlane;childLayout=stackLayout;horizontal=1;startSize=50;horizontalStack=0;rounded=1;fontSize=14;fontStyle=0;strokeWidth=2;resizeParent=0;resizeLast=1;shadow=0;dashed=0;align=center;arcSize=4;whiteSpace=wrap;html=1;" parent="1" vertex="1">
          <mxGeometry x="80" y="330" width="160" height="120" as="geometry" />
        </mxCell>
        <mxCell id="KwHJrZ09RcdxmC407kit-40" value="+Attribute1&#xa;+Attribute2&#xa;+Attribute3" style="align=left;strokeColor=none;fillColor=none;spacingLeft=4;fontSize=12;verticalAlign=top;resizable=0;rotatable=0;part=1;html=1;" parent="KwHJrZ09RcdxmC407kit-39" vertex="1">
          <mxGeometry y="50" width="160" height="70" as="geometry" />
        </mxCell>
        <mxCell id="KwHJrZ09RcdxmC407kit-49" value="Contient" style="ellipse;whiteSpace=wrap;html=1;align=center;fontStyle=4;" parent="1" vertex="1">
          <mxGeometry x="340" y="230" width="100" height="40" as="geometry" />
        </mxCell>
        <mxCell id="KwHJrZ09RcdxmC407kit-55" value="" style="endArrow=none;html=1;rounded=0;exitX=1;exitY=0.25;exitDx=0;exitDy=0;entryX=0;entryY=0;entryDx=0;entryDy=0;" parent="1" source="KwHJrZ09RcdxmC407kit-30" target="KwHJrZ09RcdxmC407kit-49" edge="1">
          <mxGeometry relative="1" as="geometry">
            <mxPoint x="40" y="440" as="sourcePoint" />
            <mxPoint x="200" y="440" as="targetPoint" />
          </mxGeometry>
        </mxCell>
        <mxCell id="KwHJrZ09RcdxmC407kit-57" value="1,1" style="edgeLabel;html=1;align=center;verticalAlign=middle;resizable=0;points=[];" parent="KwHJrZ09RcdxmC407kit-55" vertex="1" connectable="0">
          <mxGeometry x="-0.5938" y="-2" relative="1" as="geometry">
            <mxPoint as="offset" />
          </mxGeometry>
        </mxCell>
        <mxCell id="KwHJrZ09RcdxmC407kit-56" value="" style="endArrow=none;html=1;rounded=0;entryX=0;entryY=1;entryDx=0;entryDy=0;exitX=1.008;exitY=0.135;exitDx=0;exitDy=0;exitPerimeter=0;" parent="1" source="KwHJrZ09RcdxmC407kit-39" target="KwHJrZ09RcdxmC407kit-49" edge="1">
          <mxGeometry relative="1" as="geometry">
            <mxPoint x="40" y="440" as="sourcePoint" />
            <mxPoint x="200" y="440" as="targetPoint" />
          </mxGeometry>
        </mxCell>
        <mxCell id="KwHJrZ09RcdxmC407kit-58" value="1,n" style="edgeLabel;html=1;align=center;verticalAlign=middle;resizable=0;points=[];" parent="KwHJrZ09RcdxmC407kit-56" vertex="1" connectable="0">
          <mxGeometry x="-0.5284" relative="1" as="geometry">
            <mxPoint as="offset" />
          </mxGeometry>
        </mxCell>
        <mxCell id="KwHJrZ09RcdxmC407kit-59" value="&lt;span style=&quot;font-size: 12px;&quot;&gt;Matériels&lt;/span&gt;" style="swimlane;childLayout=stackLayout;horizontal=1;startSize=50;horizontalStack=0;rounded=1;fontSize=14;fontStyle=0;strokeWidth=2;resizeParent=0;resizeLast=1;shadow=0;dashed=0;align=center;arcSize=4;whiteSpace=wrap;html=1;" parent="1" vertex="1">
          <mxGeometry x="610" y="440" width="160" height="120" as="geometry" />
        </mxCell>
        <mxCell id="KwHJrZ09RcdxmC407kit-60" value="+Attribute1&#xa;+Attribute2&#xa;+Attribute3" style="align=left;strokeColor=none;fillColor=none;spacingLeft=4;fontSize=12;verticalAlign=top;resizable=0;rotatable=0;part=1;html=1;" parent="KwHJrZ09RcdxmC407kit-59" vertex="1">
          <mxGeometry y="50" width="160" height="70" as="geometry" />
        </mxCell>
        <mxCell id="KwHJrZ09RcdxmC407kit-61" value="&lt;span style=&quot;font-size: 12px;&quot;&gt;Fournisseurs&lt;/span&gt;" style="swimlane;childLayout=stackLayout;horizontal=1;startSize=50;horizontalStack=0;rounded=1;fontSize=14;fontStyle=0;strokeWidth=2;resizeParent=0;resizeLast=1;shadow=0;dashed=0;align=center;arcSize=4;whiteSpace=wrap;html=1;" parent="1" vertex="1">
          <mxGeometry x="70" y="540" width="160" height="120" as="geometry" />
        </mxCell>
        <mxCell id="KwHJrZ09RcdxmC407kit-62" value="+Attribute1&#xa;+Attribute2&#xa;+Attribute3" style="align=left;strokeColor=none;fillColor=none;spacingLeft=4;fontSize=12;verticalAlign=top;resizable=0;rotatable=0;part=1;html=1;" parent="KwHJrZ09RcdxmC407kit-61" vertex="1">
          <mxGeometry y="50" width="160" height="70" as="geometry" />
        </mxCell>
        <mxCell id="KwHJrZ09RcdxmC407kit-63" value="&lt;span style=&quot;font-size: 12px;&quot;&gt;Employés&lt;/span&gt;" style="swimlane;childLayout=stackLayout;horizontal=1;startSize=50;horizontalStack=0;rounded=1;fontSize=14;fontStyle=0;strokeWidth=2;resizeParent=0;resizeLast=1;shadow=0;dashed=0;align=center;arcSize=4;whiteSpace=wrap;html=1;" parent="1" vertex="1">
          <mxGeometry x="-370" y="330" width="160" height="120" as="geometry" />
        </mxCell>
        <mxCell id="KwHJrZ09RcdxmC407kit-64" value="+Attribute1&#xa;+Attribute2&#xa;+Attribute3" style="align=left;strokeColor=none;fillColor=none;spacingLeft=4;fontSize=12;verticalAlign=top;resizable=0;rotatable=0;part=1;html=1;" parent="KwHJrZ09RcdxmC407kit-63" vertex="1">
          <mxGeometry y="50" width="160" height="70" as="geometry" />
        </mxCell>
        <mxCell id="KwHJrZ09RcdxmC407kit-65" value="" style="endArrow=none;html=1;rounded=0;exitX=0;exitY=0.25;exitDx=0;exitDy=0;entryX=1;entryY=0.5;entryDx=0;entryDy=0;" parent="1" source="KwHJrZ09RcdxmC407kit-59" target="KwHJrZ09RcdxmC407kit-67" edge="1">
          <mxGeometry relative="1" as="geometry">
            <mxPoint x="250" y="130" as="sourcePoint" />
            <mxPoint x="440" y="390" as="targetPoint" />
          </mxGeometry>
        </mxCell>
        <mxCell id="KwHJrZ09RcdxmC407kit-78" value="1,n" style="edgeLabel;html=1;align=center;verticalAlign=middle;resizable=0;points=[];" parent="KwHJrZ09RcdxmC407kit-65" vertex="1" connectable="0">
          <mxGeometry x="-0.5819" y="-4" relative="1" as="geometry">
            <mxPoint as="offset" />
          </mxGeometry>
        </mxCell>
        <mxCell id="KwHJrZ09RcdxmC407kit-67" value="Besoin" style="ellipse;whiteSpace=wrap;html=1;align=center;fontStyle=4;" parent="1" vertex="1">
          <mxGeometry x="380" y="390" width="100" height="40" as="geometry" />
        </mxCell>
        <mxCell id="KwHJrZ09RcdxmC407kit-69" value="Besoin" style="ellipse;whiteSpace=wrap;html=1;align=center;fontStyle=4;" parent="1" vertex="1">
          <mxGeometry x="380" y="560" width="100" height="40" as="geometry" />
        </mxCell>
        <mxCell id="KwHJrZ09RcdxmC407kit-70" value="" style="endArrow=none;html=1;rounded=0;exitX=0.011;exitY=0.412;exitDx=0;exitDy=0;entryX=1;entryY=0.5;entryDx=0;entryDy=0;exitPerimeter=0;" parent="1" source="KwHJrZ09RcdxmC407kit-60" target="KwHJrZ09RcdxmC407kit-69" edge="1">
          <mxGeometry relative="1" as="geometry">
            <mxPoint x="600" y="490" as="sourcePoint" />
            <mxPoint x="420" y="550" as="targetPoint" />
          </mxGeometry>
        </mxCell>
        <mxCell id="KwHJrZ09RcdxmC407kit-81" value="1,n" style="edgeLabel;html=1;align=center;verticalAlign=middle;resizable=0;points=[];" parent="KwHJrZ09RcdxmC407kit-70" vertex="1" connectable="0">
          <mxGeometry x="-0.5922" y="-2" relative="1" as="geometry">
            <mxPoint as="offset" />
          </mxGeometry>
        </mxCell>
        <mxCell id="KwHJrZ09RcdxmC407kit-75" value="" style="endArrow=none;html=1;rounded=0;exitX=0;exitY=0.5;exitDx=0;exitDy=0;entryX=0.999;entryY=0.314;entryDx=0;entryDy=0;entryPerimeter=0;" parent="1" source="KwHJrZ09RcdxmC407kit-67" target="KwHJrZ09RcdxmC407kit-39" edge="1">
          <mxGeometry relative="1" as="geometry">
            <mxPoint x="400" y="470" as="sourcePoint" />
            <mxPoint x="260" y="420" as="targetPoint" />
          </mxGeometry>
        </mxCell>
        <mxCell id="KwHJrZ09RcdxmC407kit-77" value="1;n" style="edgeLabel;html=1;align=center;verticalAlign=middle;resizable=0;points=[];" parent="KwHJrZ09RcdxmC407kit-75" vertex="1" connectable="0">
          <mxGeometry x="0.7429" y="-4" relative="1" as="geometry">
            <mxPoint as="offset" />
          </mxGeometry>
        </mxCell>
        <mxCell id="KwHJrZ09RcdxmC407kit-79" value="" style="endArrow=none;html=1;rounded=0;exitX=0;exitY=0.5;exitDx=0;exitDy=0;entryX=0.988;entryY=0.18;entryDx=0;entryDy=0;entryPerimeter=0;" parent="1" source="KwHJrZ09RcdxmC407kit-69" target="KwHJrZ09RcdxmC407kit-61" edge="1">
          <mxGeometry relative="1" as="geometry">
            <mxPoint x="380.16" y="572.3199999999999" as="sourcePoint" />
            <mxPoint x="240.16" y="530.3199999999999" as="targetPoint" />
          </mxGeometry>
        </mxCell>
        <mxCell id="KwHJrZ09RcdxmC407kit-80" value="1;n" style="edgeLabel;html=1;align=center;verticalAlign=middle;resizable=0;points=[];" parent="KwHJrZ09RcdxmC407kit-79" vertex="1" connectable="0">
          <mxGeometry x="0.7429" y="-4" relative="1" as="geometry">
            <mxPoint as="offset" />
          </mxGeometry>
        </mxCell>
        <mxCell id="KwHJrZ09RcdxmC407kit-84" value="exécute" style="ellipse;whiteSpace=wrap;html=1;align=center;fontStyle=4;" parent="1" vertex="1">
          <mxGeometry x="-109.99999999999999" y="350" width="100" height="40" as="geometry" />
        </mxCell>
        <mxCell id="KwHJrZ09RcdxmC407kit-87" value="" style="endArrow=none;html=1;rounded=0;exitX=1;exitY=0.25;exitDx=0;exitDy=0;entryX=0;entryY=0.5;entryDx=0;entryDy=0;" parent="1" source="KwHJrZ09RcdxmC407kit-63" target="KwHJrZ09RcdxmC407kit-84" edge="1">
          <mxGeometry relative="1" as="geometry">
            <mxPoint x="-120" y="490" as="sourcePoint" />
            <mxPoint x="-30" y="500" as="targetPoint" />
          </mxGeometry>
        </mxCell>
        <mxCell id="KwHJrZ09RcdxmC407kit-90" value="1,n" style="edgeLabel;html=1;align=center;verticalAlign=middle;resizable=0;points=[];" parent="KwHJrZ09RcdxmC407kit-87" vertex="1" connectable="0">
          <mxGeometry x="-0.7123" relative="1" as="geometry">
            <mxPoint as="offset" />
          </mxGeometry>
        </mxCell>
        <mxCell id="KwHJrZ09RcdxmC407kit-88" value="" style="endArrow=none;html=1;rounded=0;exitX=1;exitY=0.5;exitDx=0;exitDy=0;entryX=0;entryY=0.25;entryDx=0;entryDy=0;" parent="1" source="KwHJrZ09RcdxmC407kit-84" target="KwHJrZ09RcdxmC407kit-39" edge="1">
          <mxGeometry relative="1" as="geometry">
            <mxPoint y="490" as="sourcePoint" />
            <mxPoint x="90" y="500" as="targetPoint" />
          </mxGeometry>
        </mxCell>
        <mxCell id="KwHJrZ09RcdxmC407kit-89" value="1,n" style="edgeLabel;html=1;align=center;verticalAlign=middle;resizable=0;points=[];" parent="KwHJrZ09RcdxmC407kit-88" vertex="1" connectable="0">
          <mxGeometry x="0.5799" y="2" relative="1" as="geometry">
            <mxPoint as="offset" />
          </mxGeometry>
        </mxCell>
        <mxCell id="KwHJrZ09RcdxmC407kit-93" value="" style="endArrow=none;html=1;rounded=0;exitX=0.995;exitY=0.212;exitDx=0;exitDy=0;entryX=0;entryY=0.5;entryDx=0;entryDy=0;exitPerimeter=0;" parent="1" source="KwHJrZ09RcdxmC407kit-32" target="KwHJrZ09RcdxmC407kit-35" edge="1">
          <mxGeometry relative="1" as="geometry">
            <mxPoint x="-280" y="180" as="sourcePoint" />
            <mxPoint x="-180" y="190" as="targetPoint" />
          </mxGeometry>
        </mxCell>
        <mxCell id="KwHJrZ09RcdxmC407kit-94" value="1,1" style="edgeLabel;html=1;align=center;verticalAlign=middle;resizable=0;points=[];" parent="KwHJrZ09RcdxmC407kit-93" vertex="1" connectable="0">
          <mxGeometry x="-0.7123" relative="1" as="geometry">
            <mxPoint as="offset" />
          </mxGeometry>
        </mxCell>
        <mxCell id="KwHJrZ09RcdxmC407kit-95" value="" style="endArrow=none;html=1;rounded=0;exitX=1;exitY=0.5;exitDx=0;exitDy=0;entryX=0;entryY=0.25;entryDx=0;entryDy=0;" parent="1" source="KwHJrZ09RcdxmC407kit-35" target="KwHJrZ09RcdxmC407kit-30" edge="1">
          <mxGeometry relative="1" as="geometry">
            <mxPoint x="-40" y="135" as="sourcePoint" />
            <mxPoint x="50" y="125" as="targetPoint" />
          </mxGeometry>
        </mxCell>
        <mxCell id="KwHJrZ09RcdxmC407kit-96" value="1,n" style="edgeLabel;html=1;align=center;verticalAlign=middle;resizable=0;points=[];" parent="KwHJrZ09RcdxmC407kit-95" vertex="1" connectable="0">
          <mxGeometry x="0.5799" y="2" relative="1" as="geometry">
            <mxPoint as="offset" />
          </mxGeometry>
        </mxCell>
        <mxCell id="KwHJrZ09RcdxmC407kit-97" value="&lt;span style=&quot;font-size: 12px;&quot;&gt;Devis&lt;/span&gt;" style="swimlane;childLayout=stackLayout;horizontal=1;startSize=50;horizontalStack=0;rounded=1;fontSize=14;fontStyle=0;strokeWidth=2;resizeParent=0;resizeLast=1;shadow=0;dashed=0;align=center;arcSize=4;whiteSpace=wrap;html=1;" parent="1" vertex="1">
          <mxGeometry x="540" y="-110" width="160" height="120" as="geometry" />
        </mxCell>
        <mxCell id="KwHJrZ09RcdxmC407kit-98" value="+Attribute1&#xa;+Attribute2&#xa;+Attribute3" style="align=left;strokeColor=none;fillColor=none;spacingLeft=4;fontSize=12;verticalAlign=top;resizable=0;rotatable=0;part=1;html=1;" parent="KwHJrZ09RcdxmC407kit-97" vertex="1">
          <mxGeometry y="50" width="160" height="70" as="geometry" />
        </mxCell>
        <mxCell id="KwHJrZ09RcdxmC407kit-99" value="&lt;span style=&quot;font-size: 12px;&quot;&gt;Factures&lt;/span&gt;" style="swimlane;childLayout=stackLayout;horizontal=1;startSize=50;horizontalStack=0;rounded=1;fontSize=14;fontStyle=0;strokeWidth=2;resizeParent=0;resizeLast=1;shadow=0;dashed=0;align=center;arcSize=4;whiteSpace=wrap;html=1;" parent="1" vertex="1">
          <mxGeometry x="-20" y="-190" width="160" height="120" as="geometry" />
        </mxCell>
        <mxCell id="KwHJrZ09RcdxmC407kit-100" value="+Attribute1&#xa;+Attribute2&#xa;+Attribute3" style="align=left;strokeColor=none;fillColor=none;spacingLeft=4;fontSize=12;verticalAlign=top;resizable=0;rotatable=0;part=1;html=1;" parent="KwHJrZ09RcdxmC407kit-99" vertex="1">
          <mxGeometry y="50" width="160" height="70" as="geometry" />
        </mxCell>
        <mxCell id="KwHJrZ09RcdxmC407kit-101" value="Avoir" style="ellipse;whiteSpace=wrap;html=1;align=center;fontStyle=4;" parent="1" vertex="1">
          <mxGeometry x="330" y="-30" width="100" height="40" as="geometry" />
        </mxCell>
        <mxCell id="KwHJrZ09RcdxmC407kit-102" value="" style="endArrow=none;html=1;rounded=0;exitX=1;exitY=0.25;exitDx=0;exitDy=0;entryX=0;entryY=0.5;entryDx=0;entryDy=0;" parent="1" source="KwHJrZ09RcdxmC407kit-30" target="KwHJrZ09RcdxmC407kit-101" edge="1">
          <mxGeometry relative="1" as="geometry">
            <mxPoint x="102.53999999999999" y="-110" as="sourcePoint" />
            <mxPoint x="217.54" y="6" as="targetPoint" />
          </mxGeometry>
        </mxCell>
        <mxCell id="KwHJrZ09RcdxmC407kit-103" value="1,1" style="edgeLabel;html=1;align=center;verticalAlign=middle;resizable=0;points=[];" parent="KwHJrZ09RcdxmC407kit-102" vertex="1" connectable="0">
          <mxGeometry x="-0.5938" y="-2" relative="1" as="geometry">
            <mxPoint as="offset" />
          </mxGeometry>
        </mxCell>
        <mxCell id="KwHJrZ09RcdxmC407kit-104" value="" style="endArrow=none;html=1;rounded=0;exitX=0;exitY=0.25;exitDx=0;exitDy=0;entryX=1;entryY=0.5;entryDx=0;entryDy=0;" parent="1" source="KwHJrZ09RcdxmC407kit-97" target="KwHJrZ09RcdxmC407kit-101" edge="1">
          <mxGeometry relative="1" as="geometry">
            <mxPoint x="500" y="-70" as="sourcePoint" />
            <mxPoint x="370" y="-130" as="targetPoint" />
          </mxGeometry>
        </mxCell>
        <mxCell id="KwHJrZ09RcdxmC407kit-105" value="1,n" style="edgeLabel;html=1;align=center;verticalAlign=middle;resizable=0;points=[];" parent="KwHJrZ09RcdxmC407kit-104" vertex="1" connectable="0">
          <mxGeometry x="-0.5819" y="-4" relative="1" as="geometry">
            <mxPoint as="offset" />
          </mxGeometry>
        </mxCell>
        <mxCell id="KwHJrZ09RcdxmC407kit-107" value="" style="endArrow=none;html=1;rounded=0;exitX=1;exitY=0.25;exitDx=0;exitDy=0;entryX=0;entryY=0;entryDx=0;entryDy=0;" parent="1" source="KwHJrZ09RcdxmC407kit-99" target="KwHJrZ09RcdxmC407kit-101" edge="1">
          <mxGeometry relative="1" as="geometry">
            <mxPoint x="160" y="30" as="sourcePoint" />
            <mxPoint x="250" y="-100" as="targetPoint" />
          </mxGeometry>
        </mxCell>
        <mxCell id="KwHJrZ09RcdxmC407kit-108" value="1,1" style="edgeLabel;html=1;align=center;verticalAlign=middle;resizable=0;points=[];" parent="KwHJrZ09RcdxmC407kit-107" vertex="1" connectable="0">
          <mxGeometry x="-0.5938" y="-2" relative="1" as="geometry">
            <mxPoint as="offset" />
          </mxGeometry>
        </mxCell>
        <mxCell id="b37YZPf62-ZmZa300oh5-1" value="Utilisateur" style="swimlane;fontStyle=0;childLayout=stackLayout;horizontal=1;startSize=26;fillColor=none;horizontalStack=0;resizeParent=1;resizeParentMax=0;resizeLast=0;collapsible=1;marginBottom=0;whiteSpace=wrap;html=1;" parent="1" vertex="1">
          <mxGeometry x="-470" y="1065" width="140" height="104" as="geometry" />
        </mxCell>
        <mxCell id="b37YZPf62-ZmZa300oh5-2" value="+ field: type" style="text;strokeColor=none;fillColor=none;align=left;verticalAlign=top;spacingLeft=4;spacingRight=4;overflow=hidden;rotatable=0;points=[[0,0.5],[1,0.5]];portConstraint=eastwest;whiteSpace=wrap;html=1;" parent="b37YZPf62-ZmZa300oh5-1" vertex="1">
          <mxGeometry y="26" width="140" height="26" as="geometry" />
        </mxCell>
        <mxCell id="b37YZPf62-ZmZa300oh5-3" value="+ field: type" style="text;strokeColor=none;fillColor=none;align=left;verticalAlign=top;spacingLeft=4;spacingRight=4;overflow=hidden;rotatable=0;points=[[0,0.5],[1,0.5]];portConstraint=eastwest;whiteSpace=wrap;html=1;" parent="b37YZPf62-ZmZa300oh5-1" vertex="1">
          <mxGeometry y="52" width="140" height="26" as="geometry" />
        </mxCell>
        <mxCell id="b37YZPf62-ZmZa300oh5-4" value="+ field: type" style="text;strokeColor=none;fillColor=none;align=left;verticalAlign=top;spacingLeft=4;spacingRight=4;overflow=hidden;rotatable=0;points=[[0,0.5],[1,0.5]];portConstraint=eastwest;whiteSpace=wrap;html=1;" parent="b37YZPf62-ZmZa300oh5-1" vertex="1">
          <mxGeometry y="78" width="140" height="26" as="geometry" />
        </mxCell>
        <mxCell id="b37YZPf62-ZmZa300oh5-5" value="Profil" style="swimlane;fontStyle=0;childLayout=stackLayout;horizontal=1;startSize=26;fillColor=none;horizontalStack=0;resizeParent=1;resizeParentMax=0;resizeLast=0;collapsible=1;marginBottom=0;whiteSpace=wrap;html=1;" parent="1" vertex="1">
          <mxGeometry x="-220" y="1065" width="140" height="104" as="geometry" />
        </mxCell>
        <mxCell id="b37YZPf62-ZmZa300oh5-6" value="+ field: type" style="text;strokeColor=none;fillColor=none;align=left;verticalAlign=top;spacingLeft=4;spacingRight=4;overflow=hidden;rotatable=0;points=[[0,0.5],[1,0.5]];portConstraint=eastwest;whiteSpace=wrap;html=1;" parent="b37YZPf62-ZmZa300oh5-5" vertex="1">
          <mxGeometry y="26" width="140" height="26" as="geometry" />
        </mxCell>
        <mxCell id="b37YZPf62-ZmZa300oh5-7" value="+ field: type" style="text;strokeColor=none;fillColor=none;align=left;verticalAlign=top;spacingLeft=4;spacingRight=4;overflow=hidden;rotatable=0;points=[[0,0.5],[1,0.5]];portConstraint=eastwest;whiteSpace=wrap;html=1;" parent="b37YZPf62-ZmZa300oh5-5" vertex="1">
          <mxGeometry y="52" width="140" height="26" as="geometry" />
        </mxCell>
        <mxCell id="b37YZPf62-ZmZa300oh5-8" value="+ field: type" style="text;strokeColor=none;fillColor=none;align=left;verticalAlign=top;spacingLeft=4;spacingRight=4;overflow=hidden;rotatable=0;points=[[0,0.5],[1,0.5]];portConstraint=eastwest;whiteSpace=wrap;html=1;" parent="b37YZPf62-ZmZa300oh5-5" vertex="1">
          <mxGeometry y="78" width="140" height="26" as="geometry" />
        </mxCell>
        <mxCell id="b37YZPf62-ZmZa300oh5-9" value="Admin" style="swimlane;fontStyle=0;childLayout=stackLayout;horizontal=1;startSize=26;fillColor=none;horizontalStack=0;resizeParent=1;resizeParentMax=0;resizeLast=0;collapsible=1;marginBottom=0;whiteSpace=wrap;html=1;" parent="1" vertex="1">
          <mxGeometry x="60" y="1065" width="140" height="104" as="geometry" />
        </mxCell>
        <mxCell id="b37YZPf62-ZmZa300oh5-10" value="+ field: type" style="text;strokeColor=none;fillColor=none;align=left;verticalAlign=top;spacingLeft=4;spacingRight=4;overflow=hidden;rotatable=0;points=[[0,0.5],[1,0.5]];portConstraint=eastwest;whiteSpace=wrap;html=1;" parent="b37YZPf62-ZmZa300oh5-9" vertex="1">
          <mxGeometry y="26" width="140" height="26" as="geometry" />
        </mxCell>
        <mxCell id="b37YZPf62-ZmZa300oh5-11" value="+ field: type" style="text;strokeColor=none;fillColor=none;align=left;verticalAlign=top;spacingLeft=4;spacingRight=4;overflow=hidden;rotatable=0;points=[[0,0.5],[1,0.5]];portConstraint=eastwest;whiteSpace=wrap;html=1;" parent="b37YZPf62-ZmZa300oh5-9" vertex="1">
          <mxGeometry y="52" width="140" height="26" as="geometry" />
        </mxCell>
        <mxCell id="b37YZPf62-ZmZa300oh5-12" value="+ field: type" style="text;strokeColor=none;fillColor=none;align=left;verticalAlign=top;spacingLeft=4;spacingRight=4;overflow=hidden;rotatable=0;points=[[0,0.5],[1,0.5]];portConstraint=eastwest;whiteSpace=wrap;html=1;" parent="b37YZPf62-ZmZa300oh5-9" vertex="1">
          <mxGeometry y="78" width="140" height="26" as="geometry" />
        </mxCell>
        <mxCell id="b37YZPf62-ZmZa300oh5-13" value="Post" style="swimlane;fontStyle=0;childLayout=stackLayout;horizontal=1;startSize=26;fillColor=none;horizontalStack=0;resizeParent=1;resizeParentMax=0;resizeLast=0;collapsible=1;marginBottom=0;whiteSpace=wrap;html=1;" parent="1" vertex="1">
          <mxGeometry x="-470" y="1250" width="140" height="104" as="geometry" />
        </mxCell>
        <mxCell id="b37YZPf62-ZmZa300oh5-14" value="+ field: type" style="text;strokeColor=none;fillColor=none;align=left;verticalAlign=top;spacingLeft=4;spacingRight=4;overflow=hidden;rotatable=0;points=[[0,0.5],[1,0.5]];portConstraint=eastwest;whiteSpace=wrap;html=1;" parent="b37YZPf62-ZmZa300oh5-13" vertex="1">
          <mxGeometry y="26" width="140" height="26" as="geometry" />
        </mxCell>
        <mxCell id="b37YZPf62-ZmZa300oh5-15" value="+ field: type" style="text;strokeColor=none;fillColor=none;align=left;verticalAlign=top;spacingLeft=4;spacingRight=4;overflow=hidden;rotatable=0;points=[[0,0.5],[1,0.5]];portConstraint=eastwest;whiteSpace=wrap;html=1;" parent="b37YZPf62-ZmZa300oh5-13" vertex="1">
          <mxGeometry y="52" width="140" height="26" as="geometry" />
        </mxCell>
        <mxCell id="b37YZPf62-ZmZa300oh5-16" value="+ field: type" style="text;strokeColor=none;fillColor=none;align=left;verticalAlign=top;spacingLeft=4;spacingRight=4;overflow=hidden;rotatable=0;points=[[0,0.5],[1,0.5]];portConstraint=eastwest;whiteSpace=wrap;html=1;" parent="b37YZPf62-ZmZa300oh5-13" vertex="1">
          <mxGeometry y="78" width="140" height="26" as="geometry" />
        </mxCell>
        <mxCell id="b37YZPf62-ZmZa300oh5-18" value="Entity Object" style="ellipse;shape=umlEntity;whiteSpace=wrap;html=1;" parent="1" vertex="1">
          <mxGeometry x="-710" y="760" width="80" height="80" as="geometry" />
        </mxCell>
      </root>
    </mxGraphModel>
  </diagram>
</mxfile>
